<?xml version="1.0" encoding="UTF-8" standalone="no"?>
<!-- Created with Inkscape (http://www.inkscape.org/) -->

<svg
   width="300"
   height="300"
   viewBox="0 0 79.374999 79.374999"
   version="1.1"
   id="svg5"
   inkscape:version="1.1.1 (c3084ef, 2021-09-22)"
   sodipodi:docname="library.svg"
   xmlns:inkscape="http://www.inkscape.org/namespaces/inkscape"
   xmlns:sodipodi="http://sodipodi.sourceforge.net/DTD/sodipodi-0.dtd"
   xmlns="http://www.w3.org/2000/svg"
   xmlns:svg="http://www.w3.org/2000/svg">
  <sodipodi:namedview
     id="namedview7"
     pagecolor="#ffffff"
     bordercolor="#666666"
     borderopacity="1.0"
     inkscape:pageshadow="2"
     inkscape:pageopacity="0.0"
     inkscape:pagecheckerboard="0"
     inkscape:document-units="px"
     showgrid="false"
     inkscape:snap-global="false"
     inkscape:zoom="0.51610123"
     inkscape:cx="169.54038"
     inkscape:cy="452.43062"
     inkscape:window-width="1293"
     inkscape:window-height="847"
     inkscape:window-x="358"
     inkscape:window-y="1105"
     inkscape:window-maximized="0"
     inkscape:current-layer="layer1"
     units="px" />
  <defs
     id="defs2" />
  <g
     inkscape:label="Layer 1"
     inkscape:groupmode="layer"
     id="layer1">
    <g
       id="g4355"
       transform="matrix(0.89696125,0,0,0.89696125,-38.080321,-60.539627)">
      <g
         id="g4231"
         transform="translate(-3.4706214)">
        <path
           id="rect972"
           style="fill:none;stroke:#000000;stroke-width:1.27;stroke-linejoin:round"
           d="M 52.465439,76.645157 H 70.258066 V 147.81567 H 52.465439 Z" />
        <path
           id="rect974"
           style="fill:none;stroke:#000000;stroke-width:0.961805;stroke-linejoin:round"
           d="m 56.417334,86.627774 h 10.34506 v 2.284809 h -10.34506 z" />
        <path
           id="path3986"
           style="fill:none;stroke:#000000;stroke-width:0.961805;stroke-linejoin:round"
           d="m 56.417334,90.767875 h 10.34506 v 2.284809 h -10.34506 z" />
        <path
           id="path3988"
           style="fill:none;stroke:#000000;stroke-width:0.961805;stroke-linejoin:round"
           d="m 56.417334,138.37903 h 10.34506 v 2.28481 h -10.34506 z" />
        <path
           style="fill:#000000;fill-opacity:1;stroke:#000000;stroke-width:2.08635;stroke-linejoin:round"
           d="m 200.92833,292.30632 c 0,87.94544 0,175.89089 0,263.83633 20.52413,0.23376 41.22808,0.0334 61.82136,0.10018 0.23375,-37.04107 0.0334,-74.26195 0.10018,-111.37217 0,-50.85478 0,-101.70956 0,-152.56434 -20.52413,-0.23375 -41.22808,-0.0334 -61.82136,-0.10018 z m 31.82329,33.13405 c 6.90938,0.23079 13.9422,-0.44465 20.78201,0.517 1.48885,1.85293 0.58515,4.70764 0.83593,6.9382 -0.37544,1.37891 0.52157,3.83621 -1.03204,4.58783 -10.49316,0.75278 -21.0808,0.18655 -31.60849,0.34676 -3.29613,-0.28948 -6.88729,0.46401 -10.04126,-0.5921 -1.03202,-3.36082 -0.64175,-7.1712 -0.0323,-10.60663 1.05662,-2.35567 4.34927,-0.69596 6.42562,-1.19106 4.89016,0 9.78033,0 14.67049,0 z m 0,15.64762 c 6.90938,0.2308 13.9422,-0.44465 20.78201,0.517 1.48885,1.85294 0.58515,4.70764 0.83593,6.9382 -0.37544,1.37891 0.52157,3.83621 -1.03204,4.58783 -10.49316,0.75278 -21.0808,0.18656 -31.60849,0.34676 -3.29613,-0.28948 -6.88729,0.46402 -10.04126,-0.5921 -1.03202,-3.36082 -0.64175,-7.1712 -0.0323,-10.60663 1.05662,-2.35567 4.34927,-0.69595 6.42562,-1.19106 4.89016,0 9.78033,0 14.67049,0 z m 0,179.94768 c 6.90938,0.2308 13.9422,-0.44465 20.78201,0.517 1.48885,1.85294 0.58515,4.70764 0.83593,6.9382 -0.37544,1.37891 0.52157,3.83621 -1.03204,4.58784 -10.49316,0.75277 -21.0808,0.18655 -31.60849,0.34676 -3.29613,-0.28949 -6.88729,0.46401 -10.04126,-0.59211 -1.03202,-3.36081 -0.64175,-7.1712 -0.0323,-10.60663 1.05662,-2.35567 4.34927,-0.69595 6.42562,-1.19106 4.89016,0 9.78033,0 14.67049,0 z"
           id="path4107"
           transform="scale(0.26458333)" />
      </g>
      <g
         id="g4243"
         transform="translate(19.910407)">
        <path
           id="path4233"
           style="fill:none;stroke:#000000;stroke-width:1.27;stroke-linejoin:round"
           d="M 52.465439,76.645157 H 70.258066 V 147.81567 H 52.465439 Z" />
        <path
           id="path4235"
           style="fill:none;stroke:#000000;stroke-width:0.961805;stroke-linejoin:round"
           d="m 56.417334,86.627774 h 10.34506 v 2.284809 h -10.34506 z" />
        <path
           id="path4237"
           style="fill:none;stroke:#000000;stroke-width:0.961805;stroke-linejoin:round"
           d="m 56.417334,90.767875 h 10.34506 v 2.284809 h -10.34506 z" />
        <path
           id="path4239"
           style="fill:none;stroke:#000000;stroke-width:0.961805;stroke-linejoin:round"
           d="m 56.417334,138.37903 h 10.34506 v 2.28481 h -10.34506 z" />
        <path
           style="fill:#000000;fill-opacity:1;stroke:#000000;stroke-width:2.08635;stroke-linejoin:round"
           d="m 200.92833,292.30632 c 0,87.94544 0,175.89089 0,263.83633 20.52413,0.23376 41.22808,0.0334 61.82136,0.10018 0.23375,-37.04107 0.0334,-74.26195 0.10018,-111.37217 0,-50.85478 0,-101.70956 0,-152.56434 -20.52413,-0.23375 -41.22808,-0.0334 -61.82136,-0.10018 z m 31.82329,33.13405 c 6.90938,0.23079 13.9422,-0.44465 20.78201,0.517 1.48885,1.85293 0.58515,4.70764 0.83593,6.9382 -0.37544,1.37891 0.52157,3.83621 -1.03204,4.58783 -10.49316,0.75278 -21.0808,0.18655 -31.60849,0.34676 -3.29613,-0.28948 -6.88729,0.46401 -10.04126,-0.5921 -1.03202,-3.36082 -0.64175,-7.1712 -0.0323,-10.60663 1.05662,-2.35567 4.34927,-0.69596 6.42562,-1.19106 4.89016,0 9.78033,0 14.67049,0 z m 0,15.64762 c 6.90938,0.2308 13.9422,-0.44465 20.78201,0.517 1.48885,1.85294 0.58515,4.70764 0.83593,6.9382 -0.37544,1.37891 0.52157,3.83621 -1.03204,4.58783 -10.49316,0.75278 -21.0808,0.18656 -31.60849,0.34676 -3.29613,-0.28948 -6.88729,0.46402 -10.04126,-0.5921 -1.03202,-3.36082 -0.64175,-7.1712 -0.0323,-10.60663 1.05662,-2.35567 4.34927,-0.69595 6.42562,-1.19106 4.89016,0 9.78033,0 14.67049,0 z m 0,179.94768 c 6.90938,0.2308 13.9422,-0.44465 20.78201,0.517 1.48885,1.85294 0.58515,4.70764 0.83593,6.9382 -0.37544,1.37891 0.52157,3.83621 -1.03204,4.58784 -10.49316,0.75277 -21.0808,0.18655 -31.60849,0.34676 -3.29613,-0.28949 -6.88729,0.46401 -10.04126,-0.59211 -1.03202,-3.36081 -0.64175,-7.1712 -0.0323,-10.60663 1.05662,-2.35567 4.34927,-0.69595 6.42562,-1.19106 4.89016,0 9.78033,0 14.67049,0 z"
           id="path4241"
           transform="scale(0.26458333)" />
      </g>
      <g
         id="g4255"
         transform="rotate(-14.090312,82.243341,-81.020444)">
        <path
           id="path4245"
           style="fill:none;stroke:#000000;stroke-width:1.27;stroke-linejoin:round"
           d="M 52.465439,76.645157 H 70.258066 V 147.81567 H 52.465439 Z" />
        <path
           id="path4247"
           style="fill:none;stroke:#000000;stroke-width:0.961805;stroke-linejoin:round"
           d="m 56.417334,86.627774 h 10.34506 v 2.284809 h -10.34506 z" />
        <path
           id="path4249"
           style="fill:none;stroke:#000000;stroke-width:0.961805;stroke-linejoin:round"
           d="m 56.417334,90.767875 h 10.34506 v 2.284809 h -10.34506 z" />
        <path
           id="path4251"
           style="fill:none;stroke:#000000;stroke-width:0.961805;stroke-linejoin:round"
           d="m 56.417334,138.37903 h 10.34506 v 2.28481 h -10.34506 z" />
        <path
           style="fill:#000000;fill-opacity:1;stroke:#000000;stroke-width:2.08635;stroke-linejoin:round"
           d="m 200.92833,292.30632 c 0,87.94544 0,175.89089 0,263.83633 20.52413,0.23376 41.22808,0.0334 61.82136,0.10018 0.23375,-37.04107 0.0334,-74.26195 0.10018,-111.37217 0,-50.85478 0,-101.70956 0,-152.56434 -20.52413,-0.23375 -41.22808,-0.0334 -61.82136,-0.10018 z m 31.82329,33.13405 c 6.90938,0.23079 13.9422,-0.44465 20.78201,0.517 1.48885,1.85293 0.58515,4.70764 0.83593,6.9382 -0.37544,1.37891 0.52157,3.83621 -1.03204,4.58783 -10.49316,0.75278 -21.0808,0.18655 -31.60849,0.34676 -3.29613,-0.28948 -6.88729,0.46401 -10.04126,-0.5921 -1.03202,-3.36082 -0.64175,-7.1712 -0.0323,-10.60663 1.05662,-2.35567 4.34927,-0.69596 6.42562,-1.19106 4.89016,0 9.78033,0 14.67049,0 z m 0,15.64762 c 6.90938,0.2308 13.9422,-0.44465 20.78201,0.517 1.48885,1.85294 0.58515,4.70764 0.83593,6.9382 -0.37544,1.37891 0.52157,3.83621 -1.03204,4.58783 -10.49316,0.75278 -21.0808,0.18656 -31.60849,0.34676 -3.29613,-0.28948 -6.88729,0.46402 -10.04126,-0.5921 -1.03202,-3.36082 -0.64175,-7.1712 -0.0323,-10.60663 1.05662,-2.35567 4.34927,-0.69595 6.42562,-1.19106 4.89016,0 9.78033,0 14.67049,0 z m 0,179.94768 c 6.90938,0.2308 13.9422,-0.44465 20.78201,0.517 1.48885,1.85294 0.58515,4.70764 0.83593,6.9382 -0.37544,1.37891 0.52157,3.83621 -1.03204,4.58784 -10.49316,0.75277 -21.0808,0.18655 -31.60849,0.34676 -3.29613,-0.28949 -6.88729,0.46401 -10.04126,-0.59211 -1.03202,-3.36081 -0.64175,-7.1712 -0.0323,-10.60663 1.05662,-2.35567 4.34927,-0.69595 6.42562,-1.19106 4.89016,0 9.78033,0 14.67049,0 z"
           id="path4253"
           transform="scale(0.26458333)" />
      </g>
    </g>
  </g>
</svg>
