<?xml version="1.0" encoding="UTF-8" standalone="no"?>
<svg
   width="16"
   height="16"
   fill="currentColor"
   class="bi bi-cloud-arrow-up"
   viewBox="0 0 16 16"
   version="1.1"
   id="svg828"
   sodipodi:docname="cloud-arrow-up.svg"
   inkscape:version="1.1.1 (c3084ef, 2021-09-22)"
   xmlns:inkscape="http://www.inkscape.org/namespaces/inkscape"
   xmlns:sodipodi="http://sodipodi.sourceforge.net/DTD/sodipodi-0.dtd"
   xmlns="http://www.w3.org/2000/svg"
   xmlns:svg="http://www.w3.org/2000/svg">
  <defs
     id="defs832" />
  <sodipodi:namedview
     id="namedview830"
     pagecolor="#ffffff"
     bordercolor="#666666"
     borderopacity="1.0"
     inkscape:pageshadow="2"
     inkscape:pageopacity="0.0"
     inkscape:pagecheckerboard="0"
     showgrid="false"
     inkscape:zoom="29.845909"
     inkscape:cx="9.0297133"
     inkscape:cy="9.4317784"
     inkscape:window-width="1312"
     inkscape:window-height="847"
     inkscape:window-x="0"
     inkscape:window-y="25"
     inkscape:window-maximized="0"
     inkscape:current-layer="svg828" />
  <path
     d="M4.406 3.342A5.53 5.53 0 0 1 8 2c2.69 0 4.923 2 5.166 4.579C14.758 6.804 16 8.137 16 9.773 16 11.569 14.502 13 12.687 13H3.781C1.708 13 0 11.366 0 9.318c0-1.763 1.266-3.223 2.942-3.593.143-.863.698-1.723 1.464-2.383zm.653.757c-.757.653-1.153 1.44-1.153 2.056v.448l-.445.049C2.064 6.805 1 7.952 1 9.318 1 10.785 2.23 12 3.781 12h8.906C13.98 12 15 10.988 15 9.773c0-1.216-1.02-2.228-2.313-2.228h-.5v-.5C12.188 4.825 10.328 3 8 3a4.53 4.53 0 0 0-2.941 1.1z"
     id="path826" />
  <path
     fill-rule="evenodd"
     d="m 7.5580337,8.1189184 c 0.195364,-0.1958584 0.512636,-0.1958584 0.708,0 l 2.0000003,2.0000006 c 0.472,0.472 -0.236,1.18 -0.7080003,0.708 l -1.146,-1.1470005 v 5.7698205 c 0,0.666667 -1,0.666667 -1,0 V 9.6799185 l -1.146,1.1470005 c -0.472,0.472 -1.18,-0.236 -0.708,-0.708 z"
     id="path824"
     sodipodi:nodetypes="ccsccssccsc"
     style="fill:#00880b;fill-opacity:0.75" />
</svg>
